<?xml version="1.0" encoding="utf-8"?>
<!-- Generator: Adobe Illustrator 18.0.0, SVG Export Plug-In . SVG Version: 6.00 Build 0)  -->
<!DOCTYPE svg PUBLIC "-//W3C//DTD SVG 1.1//EN" "http://www.w3.org/Graphics/SVG/1.1/DTD/svg11.dtd">
<svg version="1.1" id="SuperMan_is_BACK_xA0_Image_1_"
	 xmlns="http://www.w3.org/2000/svg" xmlns:xlink="http://www.w3.org/1999/xlink" x="0px" y="0px" viewBox="0 0 452 62"
	 enable-background="new 0 0 452 62" xml:space="preserve">
<g>
	<path fill="#FFFFFF" d="M7,54c-0.3-1-1-2-1-3C6,35.7,6,20.3,6,5c59.3,0,118.7,0,178,0c-5.1,7.9-10.2,15.9-15.9,24.7
		c-2.6-8.5-4.7-15.2-6.9-22.4c-2.4,1.5-4.2,2.4-5.8,3.6c-1.1,0.9-2.4,2.1-2.8,3.4c-0.7,2.3-0.5,4.9-1.1,7.2c-2.3,10-4.8,19.9-7.3,30
		c9.2,0.5,9.1,0.5,11.1-7.4c0.7-2.7,1.6-5.4,2.3-8.1c0.4,0,0.8,0,1.1,0.1c1.5,3.6,3.1,7.2,5,11.7c3.6-4.4,6.9-8.4,10.5-12.8
		c-0.8,5-1.6,9.3-2.3,13.7c10.3,0.9,8.5,1.5,10.9-6.7c3.3-11.5,6.4-23,9.5-34.5c-2.1-0.9-4.3-1.7-6.4-2.6c86.3,0,172.7,0,259,0
		c0,16.3,0,32.7,0,49c-144.7,0-289.3,0-434,0c0.9-0.3,1.8-0.6,2.8-0.8c12.2-2.9,17.1-10.7,14.7-22.9c-0.4-2.1-0.7-4.3-1.2-6.4
		c-0.9-4.1,0.4-6.6,4.9-6.5c3.2,0.1,4.5-1.7,4.9-4.4c0.3-1.9,0.6-3.8,0.8-5.7c-13.2-3.1-26.1,8-21.2,21.4c0.4,1.2,0.7,2.6,1,3.9
		c1.5,6.9,0.6,8.7-6.2,10.3c-2.8,0.6-3.9,2-4.1,4.6C7.2,49.7,7.1,51.9,7,54z M337,26.9c1.8-1.9,4.4-3.5,5.3-5.7
		c1.3-3.3,2.6-7.4,1.8-10.7c-0.9-4-5.4-4.5-9.2-4.3c-4.5,0.2-8.9,0.6-13.4,1c-6.3,0.5-7.8,3-5.7,8.9c0.2,0.6,0.5,1.3,0.4,1.8
		c-2.1,8.1-4,16.2-6.6,24.1c-1,3-3.6,5.4-5.7,8.4c8.5,3.2,15.9,2.3,23-0.1C339.1,46,342.7,37,337,26.9z M425.8,6.4
		c-3.7,1.5-8.2,2.1-8.8,3.8c-4.3,13.9-7.9,28-11.7,42.2c9.6,0.7,9.6,0.7,11.8-7.2c0.6-2.1,1.2-4.2,1.8-6.3c0.6,0,1.2-0.1,1.8-0.1
		c1.4,4.1,2.8,8.1,4.3,12.4c0.7,0,1.7,0,2.7,0c6.3,0,6.8-0.4,5.5-6.5c-0.9-4-2-8.1-3.5-11.9c-1.1-2.8-0.8-4.7,1.2-7.1
		c4.6-5.5,8.8-11.4,13.3-17.3c-7.1-2.7-7-2.6-10.9,2.4c-2.8,3.6-5.9,7-8.8,10.5c-0.5-2.6-0.1-4.6,0.3-6.7
		C425,12.5,425.3,10.4,425.8,6.4z M360.4,52.4c8.9-0.7,8.9-0.7,9-9.3c0-2.7,0.3-5.3,0.4-8c0.5-9.2,1-18.4,1.5-27.6
		c-10.6-1.1-11.2-0.8-15.1,7.8c-3.6,7.8-7.3,15.7-10.8,23.5c-2,4.5-3.9,9.1-5.8,13.7c5.5,1.3,9.8,1.5,11.2-4.9
		c0.2-0.9,1.9-1.8,3-2.1C358.6,44.6,359.4,45.5,360.4,52.4z M404.8,35.6c-4.1-2-7.2-2.4-9.5,2.1c-0.7,1.5-2.6,2.6-4.2,3.4
		c-4.2,2.1-7.4,0.4-6.8-4.2c0.8-5.3,2.3-10.7,4.8-15.4c2.6-5,6.1-5,11.8-3.6c2.4,0.6,5.7-1.4,8.2-2.9c0.5-0.3-0.5-4.2-1.7-5.8
		c-2.8-3.7-8.8-4.2-14.3-1.9c-11.4,4.8-20.7,24.5-17.2,36.4c1.9,6.6,7.3,9.5,14.1,7.1C397.3,48.2,402.4,43.2,404.8,35.6z
		 M228.5,30.9c1.2,2.7,2.6,5.1,3.4,7.8c0.9,3,2.9,4.3,5.5,3.3c1.6-0.6,3.3-2.4,3.8-4.1c1.6-5.4,2.6-11,3.9-16.5c0.9-4,1.7-8,2.6-12
		c-2.3-0.8-4-1.4-6.1-2.1c-1.7,5.6-3.4,10.9-5.2,16.9c-2.1-6.1-3.9-11.3-5.7-16.6c-4.3,1.7-6.6,3.7-7.3,8.5
		c-1.4,9.2-4.2,18.3-6.5,27.5C228.3,45.6,224.2,35.4,228.5,30.9z M137.1,31.6c3.2-3.9,6.7-7.3,9.3-11.3c4.3-6.7,1.6-12.3-6.2-13.1
		c-3.8-0.4-7.6-0.1-11.4,0c-4.2,0-4,3.1-4,5.9c0,2.4,0.5,5-0.1,7.3c-1.6,6.1-3.7,12.1-5.5,18.2c-0.5,1.6-0.7,3.3-1,4.7
		c8.5,2.2,7.3-5.4,10.5-10c2.3,3.6,4.2,6.5,6.3,9.7c2.1-0.6,4.2-1.3,7.1-2.2C139.9,36.9,138.2,33.7,137.1,31.6z M188.7,43
		c0.3,0.5,0.6,1,0.9,1.4c2.3-0.8,5.4-0.9,6.7-2.5c4.1-5,6.6-5.1,9.7,0.4c1.9-0.1,3.9-0.2,6.5-0.3c0.5-11.7,1.1-23.1,1.7-36.2
		c-4.1,1.3-8.7,1.5-9.8,3.5C198.7,20.3,193.9,31.7,188.7,43z M103.1,35.7c-0.6-4.8,1.8-7.3,5.8-7.1c6.1,0.3,6.8-2.8,6.2-7.4
		c-3-0.3-5.7-0.5-8.3-0.7c-0.2-5.1,2.2-6.2,6.2-6.3c7-0.1,7.2-0.6,7.1-7.9c-5.9,0.5-11.9,1.2-17.8,1.3c-4.4,0.1-4.1,3.1-4.3,5.8
		c-0.3,2.7,0.5,5.6-0.1,8.2c-1.4,7-3.3,13.9-5.1,21.6c5-0.3,9.4-0.9,13.8-0.6c5.7,0.4,6.6-2.7,6.4-7.4
		C109.7,35.4,106.4,35.5,103.1,35.7z M41.7,7.2C40.2,16,38.4,24.4,37.4,33c-0.9,7.6,5.7,11.8,12.5,8.3c5.5-2.9,9.8-7.3,11.6-13.2
		c2.2-7,3.7-14.3,5.5-21.5c-5.7-0.9-7.9,1.1-8.9,5.9c-1.3,6.2-3.1,12.3-5.4,18.1c-0.8,1.9-3.9,2.8-6,4.2c-0.9-1.9-2.1-3.8-2.5-5.9
		c-0.3-1.5,0.5-3.2,0.9-4.8c1.2-5.6,2.4-11.1,3.6-16.9C46.1,7.2,44.5,7.2,41.7,7.2z M64.4,42.8c6.8-0.1,7.1,0,8.3-5.5
		c0.7-3.5,2.7-4.8,5.8-5.9c6.1-2.2,11.1-6,14.4-11.7c3.7-6.4,1-11.8-6.3-12.5c-3.8-0.4-7.6,0-11.4,0c-3.6-0.1-4.3,2.2-4.4,5.2
		c-0.1,3.2-0.2,6.4-0.9,9.5C68.3,28.7,66.3,35.6,64.4,42.8z M296.8,7.4c-13.8-1.1-19.9,6.1-16.4,19.1c0.2,0.8,0.4,1.6,0.6,2.4
		c0.7,3.1-0.4,5.5-3.6,5.9c-6.2,0.7-5.3,4.9-5.2,9c15.1-1.1,19.4-6.7,16.6-21.1c-0.2-1.1-0.7-2.4-0.4-3.4c0.4-1.2,1.4-3.2,2.2-3.2
		C296.4,15.8,296,11.4,296.8,7.4z M259.8,43.4c3.2-0.8,7.2,2.7,8.3-2.5c2.5-11.1,5.1-22.2,7.8-33.6c-2.4,0-4.5,0-7.1,0
		C265.8,19.4,262.8,31.4,259.8,43.4z"/>
	<path d="M186,5c2.1,0.9,4.2,1.7,6.4,2.6c-3.2,11.5-6.2,23-9.5,34.5c-2.3,8.1-0.5,7.6-10.9,6.7c0.7-4.4,1.5-8.7,2.3-13.7
		c-3.6,4.4-6.9,8.4-10.5,12.8c-1.9-4.5-3.5-8.1-5-11.7c-0.4,0-0.8,0-1.1-0.1c-0.8,2.7-1.7,5.4-2.3,8.1c-2,7.9-1.9,7.9-11.1,7.4
		c2.5-10.1,4.9-20,7.3-30c0.6-2.4,0.4-4.9,1.1-7.2c0.4-1.3,1.7-2.5,2.8-3.4c1.5-1.2,3.3-2.1,5.8-3.6c2.2,7.2,4.3,13.9,6.9,22.4
		c5.7-8.9,10.8-16.8,15.9-24.7C184.7,5,185.3,5,186,5z"/>
	<path d="M7,54c0.1-2.1,0.2-4.3,0.3-6.4c0.1-2.6,1.2-4,4.1-4.6c6.8-1.6,7.8-3.4,6.2-10.3c-0.3-1.3-0.5-2.6-1-3.9
		C11.8,15.3,24.7,4.2,37.9,7.4c-0.3,1.9-0.5,3.8-0.8,5.7c-0.4,2.8-1.7,4.5-4.9,4.4c-4.5-0.1-5.8,2.4-4.9,6.5
		c0.5,2.1,0.8,4.2,1.2,6.4c2.4,12.2-2.5,20-14.7,22.9c-0.9,0.2-1.8,0.5-2.8,0.8C9.7,54,8.3,54,7,54z"/>
	<path d="M337,26.9c5.7,10.1,2.1,19.1-10,23.2c-7.1,2.4-14.6,3.3-23,0.1c2.1-3,4.8-5.4,5.7-8.4c2.6-7.9,4.5-16,6.6-24.1
		c0.1-0.5-0.2-1.2-0.4-1.8c-2.1-6-0.6-8.4,5.7-8.9c4.5-0.4,8.9-0.8,13.4-1c3.8-0.2,8.3,0.3,9.2,4.3c0.7,3.3-0.5,7.4-1.8,10.7
		C341.4,23.4,338.8,25,337,26.9z M318.1,43.4c3.9-0.9,6.9-1,9.3-2.4c1.6-0.9,2.3-3.5,3.4-5.3c-1.9-1.1-3.7-2.9-5.7-3
		c-1.5-0.1-3.7,1.4-4.7,2.9C319.2,37.3,319.1,39.8,318.1,43.4z M323.6,25.2c3-0.8,5.3-0.9,6.9-2c1.7-1.2,2.8-3.3,4.1-5.1
		c-1.9-0.9-3.8-2-5.8-2.6c-1.2-0.4-2.6-0.1-3.6-0.1C324.8,18.6,324.3,21.3,323.6,25.2z"/>
	<path d="M425.8,6.4c-0.6,3.9-0.8,6-1.2,8.1c-0.3,2.1-0.8,4.1-0.3,6.7c3-3.5,6-6.9,8.8-10.5c3.9-5,3.8-5.1,10.9-2.4
		c-4.5,5.9-8.6,11.8-13.3,17.3c-2,2.4-2.3,4.2-1.2,7.1c1.5,3.8,2.7,7.9,3.5,11.9c1.3,6.1,0.8,6.5-5.5,6.5c-1,0-2,0-2.7,0
		c-1.5-4.3-2.9-8.3-4.3-12.4c-0.6,0-1.2,0.1-1.8,0.1c-0.6,2.1-1.2,4.2-1.8,6.3c-2.2,7.9-2.1,7.9-11.8,7.2
		c3.8-14.2,7.4-28.4,11.7-42.2C417.6,8.5,422.1,8,425.8,6.4z"/>
	<path d="M360.4,52.4c-0.9-6.8-1.8-7.8-6.6-6.8c-1.1,0.2-2.8,1.2-3,2.1c-1.4,6.4-5.7,6.2-11.2,4.9c2-4.6,3.8-9.2,5.8-13.7
		c3.6-7.9,7.2-15.7,10.8-23.5c4-8.6,4.5-8.9,15.1-7.8c-0.5,9.2-1,18.4-1.5,27.6c-0.1,2.7-0.4,5.3-0.4,8
		C369.3,51.7,369.3,51.7,360.4,52.4z M360.7,24.9c-0.3-0.1-0.5-0.1-0.8-0.2c-1.6,3.7-3.2,7.5-5,11.6c2.6,0.2,4.2,0.3,5.8,0.4
		C360.7,32.6,360.7,28.8,360.7,24.9z"/>
	<path d="M404.8,35.6c-2.4,7.6-7.5,12.6-14.8,15.2c-6.8,2.4-12.2-0.5-14.1-7.1c-3.5-11.9,5.8-31.5,17.2-36.4
		c5.5-2.3,11.5-1.7,14.3,1.9c1.2,1.6,2.2,5.5,1.7,5.8c-2.5,1.5-5.8,3.5-8.2,2.9c-5.6-1.4-9.2-1.4-11.8,3.6c-2.4,4.7-4,10.1-4.8,15.4
		c-0.7,4.6,2.6,6.3,6.8,4.2c1.6-0.8,3.5-1.9,4.2-3.4C397.6,33.2,400.7,33.6,404.8,35.6z"/>
	<path d="M228.5,30.9c-4.3,4.5-0.2,14.8-11.6,12.7c2.3-9.2,5.1-18.2,6.5-27.5c0.7-4.8,3-6.8,7.3-8.5c1.8,5.3,3.6,10.5,5.7,16.6
		c1.9-6,3.5-11.3,5.2-16.9c2.1,0.7,3.8,1.3,6.1,2.1c-0.9,4.1-1.7,8.1-2.6,12c-1.2,5.5-2.3,11.1-3.9,16.5c-0.5,1.6-2.2,3.5-3.8,4.1
		c-2.6,1-4.6-0.3-5.5-3.3C231.2,36,229.8,33.6,228.5,30.9z"/>
	<path d="M137.1,31.6c1.2,2.2,2.8,5.4,4.8,9.1c-2.8,0.9-5,1.5-7.1,2.2c-2-3.2-4-6.1-6.3-9.7c-3.2,4.5-2,12.2-10.5,10
		c0.3-1.4,0.6-3.1,1-4.7c1.8-6.1,3.9-12,5.5-18.2c0.6-2.3,0.1-4.8,0.1-7.3c0-2.9-0.2-5.9,4-5.9c3.8,0,7.7-0.4,11.4,0
		c7.8,0.8,10.6,6.5,6.2,13.1C143.8,24.2,140.3,27.7,137.1,31.6z M133.8,12.8c-1.2,5-1.9,8.2-2.7,11.7c5.6-0.6,9.6-3.6,8.6-6.5
		C139,16.2,136.4,15,133.8,12.8z"/>
	<path d="M188.7,43c5.1-11.3,10-22.7,15.7-33.7c1-2,5.7-2.1,9.8-3.5c-0.6,13.1-1.1,24.5-1.7,36.2c-2.6,0.1-4.5,0.2-6.5,0.3
		c-3.1-5.5-5.6-5.4-9.7-0.4c-1.3,1.6-4.4,1.7-6.7,2.5C189.3,44,189,43.5,188.7,43z M205.6,21.7c-0.2-0.1-0.5-0.1-0.7-0.2
		c-1.2,2.8-2.4,5.7-3.8,9c2.1,0,3.3,0,4.6,0C205.6,27.5,205.6,24.6,205.6,21.7z"/>
	<path d="M103.1,35.7c3.3-0.1,6.6-0.3,10-0.4c0.2,4.7-0.7,7.7-6.4,7.4c-4.4-0.3-8.8,0.4-13.8,0.6c1.9-7.7,3.7-14.7,5.1-21.6
		c0.5-2.6-0.2-5.5,0.1-8.2c0.3-2.6-0.1-5.7,4.3-5.8c5.9-0.1,11.9-0.9,17.8-1.3c0.1,7.3-0.2,7.8-7.1,7.9c-4,0.1-6.4,1.2-6.2,6.3
		c2.6,0.2,5.3,0.4,8.3,0.7c0.5,4.6-0.1,7.8-6.2,7.4C104.9,28.4,102.5,30.8,103.1,35.7z"/>
	<path d="M41.7,7.2c2.8,0,4.4,0,7,0c-1.2,5.8-2.4,11.4-3.6,16.9c-0.3,1.6-1.1,3.3-0.9,4.8c0.4,2,1.6,3.9,2.5,5.9
		c2.1-1.4,5.2-2.3,6-4.2c2.3-5.8,4.1-12,5.4-18.1c1-4.8,3.3-6.9,8.9-5.9c-1.8,7.2-3.2,14.5-5.5,21.5C59.7,34,55.5,38.4,50,41.3
		c-6.8,3.5-13.4-0.7-12.5-8.3C38.4,24.4,40.2,16,41.7,7.2z"/>
	<path d="M64.4,42.8c1.9-7.2,3.9-14,5.4-21c0.7-3.1,0.8-6.3,0.9-9.5c0.1-3,0.8-5.2,4.4-5.2c3.8,0.1,7.7-0.4,11.4,0
		c7.3,0.8,10,6.1,6.3,12.5c-3.3,5.7-8.3,9.5-14.4,11.7c-3,1.1-5,2.4-5.8,5.9C71.6,42.7,71.3,42.7,64.4,42.8z M77.1,24.7
		c5.8-0.8,9.7-3.8,8.6-6.7C85,16.1,82.4,15,79.9,13C78.8,17.8,78,20.9,77.1,24.7z"/>
	<path d="M296.8,7.4c-0.7,4.1-0.4,8.5-6.2,8.7c-0.8,0-1.8,2-2.2,3.2c-0.3,1,0.1,2.3,0.4,3.4c2.8,14.3-1.5,19.9-16.6,21.1
		c-0.1-4.1-1-8.3,5.2-9c3.2-0.4,4.3-2.8,3.6-5.9c-0.2-0.8-0.4-1.6-0.6-2.4C276.8,13.5,283,6.2,296.8,7.4z"/>
	<path d="M259.8,43.4c3-12,6-24,9-36.1c2.6,0,4.7,0,7.1,0c-2.6,11.4-5.2,22.5-7.8,33.6C267,46.1,263,42.6,259.8,43.4z"/>
	<path fill="#FFFFFF" d="M318.1,43.4c1-3.6,1.1-6.1,2.3-7.9c0.9-1.4,3.2-3,4.7-2.9c2,0.2,3.8,2,5.7,3c-1.1,1.8-1.8,4.4-3.4,5.3
		C325,42.4,322,42.5,318.1,43.4z"/>
	<path fill="#FFFFFF" d="M323.6,25.2c0.7-3.9,1.2-6.6,1.7-9.8c1,0,2.4-0.3,3.6,0.1c2,0.6,3.8,1.7,5.8,2.6c-1.3,1.7-2.4,3.9-4.1,5.1
		C328.9,24.4,326.5,24.4,323.6,25.2z"/>
	<path fill="#FFFFFF" d="M360.7,24.9c0,3.8,0,7.7,0,11.8c-1.6-0.1-3.1-0.2-5.8-0.4c1.8-4.1,3.4-7.9,5-11.6
		C360.2,24.8,360.4,24.9,360.7,24.9z"/>
	<path fill="#FFFFFF" d="M133.8,12.8c2.6,2.2,5.3,3.3,5.9,5.2c1,3-3,6-8.6,6.5C131.9,21,132.6,17.8,133.8,12.8z"/>
	<path fill="#FFFFFF" d="M205.6,21.7c0,2.9,0,5.7,0,8.8c-1.3,0-2.5,0-4.6,0c1.4-3.3,2.6-6.2,3.8-9C205.1,21.6,205.4,21.7,205.6,21.7
		z"/>
	<path fill="#FFFFFF" d="M77.1,24.7c0.9-3.7,1.6-6.9,2.8-11.6c2.5,2,5.1,3.1,5.8,4.9C86.8,20.8,82.9,23.9,77.1,24.7z"/>
</g>
</svg>
