<!--?xml version="1.0" standalone="no"?-->
<svg version="1.0" xmlns="http://www.w3.org/2000/svg" width="300.000000pt" height="249.000000pt" viewBox="0 0 300.000000 249.000000" preserveAspectRatio="xMidYMid meet">
<g transform="translate(0.000000,249.000000) scale(0.100000,-0.100000)" fill="#060606" stroke="none">
<path class="node" id="node1" d="M433 2298 c-204 -190 -413 -403 -413 -421 0 -25 36 -76 111 -155 35 -37 88 -96 118 -132 30 -36 73 -85 95 -110 47 -52 141 -161 204 -235 23 -27 57 -66 75 -85 18 -19 61 -69 96 -110 35 -41 69 -79 75 -85 7 -5 36 -39 65 -75 30 -36 64 -76 76 -90 12 -14 42 -47 67 -75 111 -126 243 -281 338 -398 107 -133 132 -150 176 -127 13 7 58 54 100 104 77 93 159 187 226 260 20 23 90 102 154 176 65 74 120 137 124 140 3 3 72 82 154 175 81 94 158 179 170 190 12 11 48 52 80 90 32 39 75 88 95 110 20 22 63 72 96 110 33 39 62 72 65 75 17 17 131 152 159 188 23 30 31 49 27 65 -6 23 -418 438 -473 475 l-31 22 -970 0 -971 0 -88 -82z m297 -83 c0 -14 -96 -111 -140 -142 -20 -14 -107 -124 -129 -162 -22 -39 -48 -123 -56 -179 -4 -29 -11 -52 -15 -52 -18 0 -122 117 -148 167 -18 33 8 81 70 130 29 23 90 80 136 127 120 123 124 125 210 126 58 0 72 -3 72 -15z m961 -27 c31 -9 73 -27 93 -40 59 -37 157 -118 163 -136 3 -10 15 -27 25 -38 12 -13 21 -43 25 -78 l6 -56 248 0 249 0 0 115 c0 146 4 146 128 28 26 -25 66 -61 90 -81 27 -22 42 -42 40 -53 -2 -10 -77 -100 -167 -200 -149 -164 -166 -179 -178 -163 -7 10 -13 23 -13 30 0 7 -4 14 -8 16 -4 2 -18 18 -31 36 -29 41 -150 103 -246 125 -192 45 -248 51 -645 71 -157 8 -316 20 -355 27 -82 14 -170 51 -196 82 -26 31 -26 121 1 164 23 39 159 130 215 144 22 6 51 14 65 19 14 4 117 7 230 6 158 -1 218 -5 261 -18z m-676 -828 c164 -22 244 -30 310 -30 39 0 86 -4 105 -9 19 -5 98 -12 175 -15 169 -6 329 -31 405 -62 73 -30 85 -39 88 -67 7 -62 -77 -121 -196 -139 -37 -5 -81 -14 -98 -19 -17 -5 -97 -9 -178 -9 l-147 0 -47 43 c-26 24 -69 54 -97 67 -27 13 -58 27 -67 32 -10 4 -74 8 -143 8 -118 0 -128 -2 -167 -26 -33 -21 -45 -24 -64 -15 -40 18 -208 236 -197 255 6 9 208 1 318 -14z m264 -560 c103 -22 286 -26 421 -10 42 5 79 5 84 0 24 -23 -244 -330 -287 -330 -15 0 -63 46 -157 151 -132 148 -180 209 -163 209 4 0 50 -9 102 -20z"/>
</g>
<g transform="translate(0.000000,249.000000) scale(0.100000,-0.100000)" fill="#A4A4A4" stroke="none">

<path class="node" id="node3" d="M558 2209 c-14 -11 -64 -58 -110 -105 -46 -47 -107 -104 -136 -127 -62 -49 -88 -97 -70 -130 26 -50 130 -167 148 -167 4 0 11 23 15 52 8 56 34 140 56 179 22 38 109 148 129 162 44 31 140 128 140 142 0 25 -137 21 -172 -6z"/>
<path class="node" id="node4" d="M1200 2200 c-14 -5 -43 -13 -65 -19 -56 -14 -192 -105 -215 -144 -27 -43 -27 -133 -1 -164 26 -31 114 -68 196 -82 39 -7 198 -19 355 -27 397 -20 453 -26 645 -71 96 -22 217 -84 246 -125 13 -18 27 -34 31 -36 4 -2 8 -9 8 -16 0 -7 6 -20 13 -30 12 -16 29 -1 178 163 90 100 165 190 167 200 2 11 -13 31 -40 53 -24 20 -64 56 -90 81 -124 118 -128 118 -128 -28 l0 -115 -249 0 -248 0 -6 56 c-4 35 -13 65 -25 78 -10 11 -22 28 -25 38 -3 9 -33 38 -66 65 -145 116 -181 127 -451 129 -113 1 -216 -2 -230 -6z"/>
<path class="node" id="node5" d="M697 1374 c-11 -19 157 -237 197 -255 19 -9 31 -6 64 15 39 24 49 26 167 26 69 0 133 -4 143 -8 9 -5 40 -19 67 -32 28 -13 71 -43 97 -67 l47 -43 147 0 c81 0 161 4 178 9 17 5 61 14 98 19 119 18 203 77 196 139 -3 28 -15 37 -88 67 -76 31 -236 56 -405 62 -77 3 -156 10 -175 15 -19 5 -66 9 -105 9 -66 0 -146 8 -310 30 -110 15 -312 23 -318 14z"/>
<path class="node" id="node6" d="M1187 791 c10 -16 79 -97 153 -180 94 -105 142 -151 157 -151 43 0 311 307 287 330 -5 5 -42 5 -84 0 -135 -16 -318 -12 -421 10 -119 25 -114 25 -92 -9z"/>
</g>
</svg>