<?xml version="1.0" encoding="utf-8"?>
<!-- Generator: Adobe Illustrator 18.0.0, SVG Export Plug-In . SVG Version: 6.00 Build 0)  -->
<!DOCTYPE svg PUBLIC "-//W3C//DTD SVG 1.1//EN" "http://www.w3.org/Graphics/SVG/1.1/DTD/svg11.dtd">
<svg version="1.1" id="Calque_1" xmlns="http://www.w3.org/2000/svg" xmlns:xlink="http://www.w3.org/1999/xlink" x="0px" y="0px"
	 viewBox="0 0 960 560" enable-background="new 0 0 960 560" xml:space="preserve">
<path fill="none" stroke="#000000" stroke-miterlimit="10" d="M180.2,235.6c-3.8-3.7-9.3-5.6-14.5-5.1c-2.5,0.3-5.6,2-5,4.5
	c4,4.6,8.9,8.4,14.4,11.1c1.5,0.7,3.2,1.4,4.9,1c2.3-0.5,3.7-3.1,3.6-5.4S181.9,237.3,180.2,235.6z"/>
<path fill="none" stroke="#000000" stroke-miterlimit="10" d="M213.4,241.6c0,5.4,3.7,10.6,8.7,12.3s11.2-0.1,14.5-4.4
	c-2.2-1-4-2.9-4.7-5.3C225.7,243.4,219.6,242.5,213.4,241.6z"/>
</svg>
